<?xml version="1.0" encoding="iso-8859-1"?>
<!-- Generator: Adobe Illustrator 21.0.0, SVG Export Plug-In . SVG Version: 6.00 Build 0)  -->
<svg version="1.1" id="Capa_1" xmlns="http://www.w3.org/2000/svg" xmlns:xlink="http://www.w3.org/1999/xlink" x="0px" y="0px"
	 viewBox="0 0 512 512" style="enable-background:new 0 0 512 512;" xml:space="preserve">
<circle style="fill:#4A7AFF;" cx="256" cy="256" r="256"/>
<path style="fill:#2864F0;" d="M511.28,275.28L389.333,153.333L122.667,421.5l86.142,86.142C224.106,510.493,239.876,512,256,512
	C390.899,512,501.422,407.659,511.28,275.28z"/>
<polygon style="fill:#FFFFFF;" points="311,75 122.667,75 122.667,421.5 389.333,421.5 389.333,153.333 "/>
<polygon style="fill:#F2F6FC;" points="389.333,153.333 311,75 255.571,75 255.571,421.5 389.333,421.5 "/>
<polygon style="fill:#DCE1EB;" points="311,153.333 389.333,153.333 311,75 "/>
<rect x="151.5" y="218" style="fill:#FF432E;" width="209" height="165.83"/>
<rect x="255.57" y="218" style="fill:#DB0404;" width="104.93" height="165.83"/>
<g>
	<path style="fill:#FFFFFF;" d="M179.45,334.668v-62.401h26.454c2.87,0,5.522,0.601,7.954,1.802
		c2.431,1.201,4.526,2.783,6.284,4.746c1.758,1.964,3.134,4.19,4.131,6.68c0.996,2.491,1.494,4.996,1.494,7.514
		c0,2.637-0.47,5.201-1.406,7.69c-0.938,2.491-2.256,4.702-3.955,6.635c-1.7,1.934-3.75,3.487-6.152,4.658
		c-2.403,1.173-5.04,1.758-7.91,1.758h-14.765v20.917H179.45V334.668z M191.579,303.116h14.062c2.227,0,4.087-0.908,5.581-2.724
		c1.494-1.816,2.241-4.276,2.241-7.383c0-1.582-0.234-3.002-0.703-4.263c-0.47-1.259-1.085-2.329-1.846-3.208
		c-0.762-0.879-1.656-1.538-2.681-1.978c-1.025-0.439-2.065-0.659-3.12-0.659h-13.534V303.116z"/>
	<path style="fill:#FFFFFF;" d="M234.028,334.668v-62.401h22.675c5.098,0,9.565,0.821,13.403,2.461
		c3.837,1.641,7.045,3.867,9.624,6.68c2.578,2.813,4.511,6.108,5.801,9.887c1.288,3.779,1.934,7.808,1.934,12.085
		c0,4.746-0.719,9.039-2.153,12.876c-1.437,3.838-3.502,7.119-6.196,9.844c-2.695,2.724-5.933,4.834-9.712,6.328
		s-8.013,2.241-12.7,2.241L234.028,334.668L234.028,334.668z M275.248,303.379c0-2.988-0.41-5.741-1.23-8.261
		c-0.821-2.519-2.021-4.687-3.604-6.504c-1.582-1.815-3.53-3.222-5.845-4.219c-2.315-0.996-4.937-1.494-7.866-1.494h-10.546v41.132
		h10.546c2.988,0,5.639-0.527,7.954-1.582c2.314-1.055,4.248-2.505,5.801-4.351c1.552-1.846,2.738-4.028,3.56-6.548
		C274.838,309.035,275.248,306.31,275.248,303.379z"/>
</g>
<g>
	<path style="fill:#F2F6FC;" d="M285.531,291.295c-1.29-3.779-3.223-7.075-5.801-9.887c-2.579-2.813-5.787-5.039-9.624-6.68
		c-3.838-1.64-8.306-2.461-13.403-2.461h-1.132v10.635h1.132c2.93,0,5.551,0.499,7.866,1.494c2.314,0.997,4.263,2.403,5.845,4.219
		c1.582,1.817,2.782,3.985,3.604,6.504c0.82,2.52,1.23,5.273,1.23,8.261c0,2.931-0.41,5.655-1.23,8.174
		c-0.821,2.52-2.008,4.702-3.56,6.548c-1.553,1.846-3.486,3.296-5.801,4.351c-2.315,1.055-4.966,1.582-7.954,1.582h-1.132v10.635
		h1.132c4.688,0,8.921-0.747,12.7-2.241s7.017-3.604,9.712-6.328c2.694-2.725,4.76-6.005,6.196-9.844
		c1.435-3.837,2.153-8.13,2.153-12.876C287.465,299.103,286.819,295.074,285.531,291.295z"/>
	<path style="fill:#F2F6FC;" d="M297.131,334.668v-62.401h41.923v10.635H309.26v16.084h24.784v9.844H309.26v25.839h-12.129V334.668z
		"/>
</g>
<g>
</g>
<g>
</g>
<g>
</g>
<g>
</g>
<g>
</g>
<g>
</g>
<g>
</g>
<g>
</g>
<g>
</g>
<g>
</g>
<g>
</g>
<g>
</g>
<g>
</g>
<g>
</g>
<g>
</g>
</svg>
